<svg xmlns="http://www.w3.org/2000/svg" viewBox="0 0 500 500" width="100%" height="100%">
        <defs>
            <linearGradient id="grad-fries" x1="0%" y1="0%" x2="100%" y2="100%">
                <stop offset="0%" style="stop-color:#1dd1a1;stop-opacity:1" />
                <stop offset="100%" style="stop-color:#10ac84;stop-opacity:1" />
            </linearGradient>
        </defs>
        <rect width="500" height="500" rx="30" fill="url(#grad-fries)"/>
        <!-- French Fries sticks -->
        <rect x="180" y="100" width="22" height="180" rx="5" fill="#feca57" transform="rotate(-15 180 100)"/>
        <rect x="210" y="80" width="22" height="200" rx="5" fill="#ffff26" transform="rotate(-5 210 80)"/>
        <rect x="240" y="90" width="22" height="190" rx="5" fill="#feca57" transform="rotate(5 240 90)"/>
        <rect x="270" y="70" width="22" height="210" rx="5" fill="#ffff26" transform="rotate(12 270 70)"/>
        <rect x="300" y="110" width="22" height="170" rx="5" fill="#feca57" transform="rotate(20 300 110)"/>
        <!-- Red Box Holder -->
        <path d="M 160,220 L 340,220 L 320,350 L 180,350 Z" fill="#ff4757"/>
        <path d="M 160,220 Q 250,250 340,220" fill="#ff4757"/>
        <circle cx="250" cy="285" r="30" fill="#ffa502"/>
        <path d="M 235,285 Q 250,260 265,285" stroke="#ffffff" stroke-width="4" fill="none"/>
        <text x="50%" y="420" text-anchor="middle" font-family="'Outfit', sans-serif" font-weight="bold" font-size="28" fill="#ffffff">FRENCH FRIES</text>
    </svg>